<?xml version="1.0" encoding="utf-8"?>
<!-- Generator: Adobe Illustrator 21.1.0, SVG Export Plug-In . SVG Version: 6.00 Build 0)  -->
<svg version="1.1" id="Layer_1" xmlns="http://www.w3.org/2000/svg" xmlns:xlink="http://www.w3.org/1999/xlink" x="0px" y="0px"
	 viewBox="0 0 510.2 107.6" style="enable-background:new 0 0 510.2 107.6;" xml:space="preserve">
<style type="text/css">
	.st0{fill:#FFFFFF;}
</style>
<title>Outlined_Logos</title>
<path class="st0" d="M5,53.9C5,38,19.2,32.3,36.6,32.3c9.6,0,18,1.8,22.5,3.6c2.1,0.7,2.9,1.6,2.9,2.7c0,1.1-0.7,1.9-1.8,1.9
	c-0.1,0-0.2,0-0.2,0c-3,0-8.5-3.6-23.3-3.6c-13.7,0-25.5,4.1-25.5,16.9s11.8,16.9,25.5,16.9c14.8,0,20.2-3.6,23.2-3.6
	c1.1-0.1,1.9,0.6,2.2,1.7c0,0.1,0,0.1,0,0.2c0,1.2-0.9,2.1-2.9,2.7c-4.5,1.8-12.6,3.6-22.5,3.6C19.2,75.6,5,69.9,5,53.9"/>
<path class="st0" d="M134.6,53.9c0-12.3-10.5-17-27-17s-27,4.7-27,17s10.5,16.9,27,16.9S134.6,66.3,134.6,53.9 M74.8,53.9
	c0-15.6,12.9-21.6,32.8-21.6s33,6.1,33,21.6s-13,21.5-33,21.5S74.8,69.6,74.8,53.9"/>
<path class="st0" d="M153.2,71.9V36.1c0-1.6,1.2-2.8,2.8-2.8s2.8,1.2,2.8,2.8l0,0v33.8h40.6c1.2,0,2.3,1,2.3,2.2v0.1
	c0.1,1.2-0.9,2.3-2.1,2.3c-0.1,0-0.1,0-0.2,0h-43.7c-1.3,0.1-2.6-1-2.7-2.4C153.1,72.1,153.1,72.1,153.2,71.9"/>
<path class="st0" d="M214.4,71.8V37.4c0-2.4,1.8-4.3,4.7-4.3c2.7,0,4.5,1.2,6.7,3.8L254.9,70l28.5-32.8c2.3-2.7,4.1-3.9,6.7-3.9
	c2.9,0,4.7,1.7,4.7,4.5v34c0.1,1.5-1.1,2.7-2.6,2.8c-0.1,0-0.2,0-0.2,0c-1.5,0.1-2.8-1-2.8-2.4c0-0.1,0-0.2,0-0.4V38.7l-28.1,32.3
	c-2.3,2.6-3.9,3.5-6.2,3.5s-3.9-1-6.2-3.5l-28.6-32.5v33.2c0,1.5-1.1,2.7-2.6,2.8c-0.1,0-0.2,0-0.2,0c-1.5,0.1-2.7-1-2.8-2.3
	C214.4,72.1,214.4,71.9,214.4,71.8"/>
<path class="st0" d="M367.1,53.9c0-12.3-10.3-17-27-17c-16.7,0-26.9,4.7-26.9,17s10.3,16.9,26.9,16.9S367.1,66.3,367.1,53.9
	 M307.3,53.9c0-15.6,13-21.6,32.8-21.6c19.8,0,32.8,6.1,32.8,21.6s-13,21.5-32.8,21.5C320.3,75.5,307.3,69.6,307.3,53.9"/>
<path class="st0" d="M410.8,55.3c16.5,0,23.7-2.6,23.7-8.9s-7.2-9-23.7-9c-6.4,0-13,0.2-19.5,1v15.8
	C397.8,54.9,404.2,55.3,410.8,55.3 M408.7,61.6l-2.1-1.8c-4.9,0-10.3-0.4-15.3-0.9v12.8c0,1.6-1.2,2.8-2.8,2.8
	c-1.6,0-2.8-1.2-2.8-2.8V38.1c0-2.2,0.9-3.5,3.5-4.1c3.6-0.7,10.9-1.3,22-1.3c20.4,0,29.1,4.1,29.1,13.7c0,8.9-7.8,13.1-26,13.5
	l0.1,0.1c5.4,5,12.8,10.6,20.7,10.6c1.7,0,3-0.2,3.9-0.2c1.3,0,2.4,0.6,2.4,2.2s-1.7,2.7-6,2.7C424,75.1,416.5,68.7,408.7,61.6"/>
<path class="st0" d="M503.7,74.6H456c-1.3,0.1-2.6-1-2.7-2.4c0-0.1,0-0.2,0-0.2v-36c-0.1-1.5,1-2.7,2.4-2.7c0.1,0,0.1,0,0.2,0h47.7
	c1.3,0,2.3,1.1,2.3,2.3c0,1.3-1.1,2.3-2.3,2.3h-44.9v13.9h43.5c1.2-0.1,2.2,0.7,2.3,1.9c0.1,1.2-0.7,2.2-1.9,2.3c-0.1,0-0.2,0-0.4,0
	h-43.5v14h44.9c1.2,0,2.2,0.9,2.3,2.1c0,0.1,0,0.1,0,0.2c0.1,1.2-0.9,2.2-2.1,2.3C503.9,74.6,503.8,74.6,503.7,74.6"/>
</svg>
